<svg xmlns="http://www.w3.org/2000/svg" width="39.579" height="39.579" viewBox="0 0 39.579 39.579">
  <g id="disord" transform="translate(0)">
    <path id="Path_22" data-name="Path 22" d="M2202.143,437.077a20.8,20.8,0,0,0-5.225-1.615,13.322,13.322,0,0,0-.669,1.374,19.635,19.635,0,0,0-5.791,0,14.8,14.8,0,0,0-.687-1.374,20.639,20.639,0,0,0-5.23,1.621,21.359,21.359,0,0,0-3.747,14.443,21.017,21.017,0,0,0,6.412,3.236,15.765,15.765,0,0,0,1.374-2.228,13.583,13.583,0,0,1-2.162-1.033q.27-.2.522-.41a15,15,0,0,0,12.824,0c.172.142.35.279.529.412a13.552,13.552,0,0,1-2.166,1.037,15.586,15.586,0,0,0,1.374,2.224,20.887,20.887,0,0,0,6.412-3.236,21.331,21.331,0,0,0-3.77-14.452m-13,11.546a2.573,2.573,0,1,1,2.279-2.558,2.432,2.432,0,0,1-2.279,2.558m8.416,0a2.573,2.573,0,1,1,2.276-2.558,2.432,2.432,0,0,1-2.276,2.558" transform="translate(-2173.563 -425.324)" fill="#E56A17"/>
    <path id="Path_23" data-name="Path 23" d="M1894.512,2.709a17.081,17.081,0,1,1-17.08,17.08,17.1,17.1,0,0,1,17.08-17.08m0-2.709A19.789,19.789,0,1,0,1914.3,19.789,19.79,19.79,0,0,0,1894.512,0" transform="translate(-1874.722)" fill="#E56A17"/>
  </g>
</svg>
