<svg id="twitter" xmlns="http://www.w3.org/2000/svg" width="39.579" height="39.579" viewBox="0 0 39.579 39.579">
  <path id="Path_24" data-name="Path 24" d="M19.789,2.709a17.081,17.081,0,1,1-17.08,17.08,17.1,17.1,0,0,1,17.08-17.08m0-2.709a19.789,19.789,0,1,0,19.79,19.789A19.79,19.79,0,0,0,19.789,0" fill="#E56A17"/>
  <path id="Path_25" data-name="Path 25" d="M357.2,403.83l-9.446-12.407,7.961-9.382H352l-5.978,7.109-5.412-7.109H333.1l8.981,11.8-8.4,9.993h3.549l6.569-7.742,5.894,7.742Zm-17.5-19.644,13.206,17.5h-2.146l-13.453-17.5Z" transform="translate(-325.343 -373.145)" fill="#E56A17"/>
</svg>
