<svg width="18" height="20" viewBox="0 0 18 20" fill="none" xmlns="http://www.w3.org/2000/svg">
<circle cx="9" cy="11.0002" r="8.5" stroke="#707A8A"/>
<path d="M4.88123 10.8122C4.88123 9.99624 5.06523 9.26424 5.43323 8.61624C5.80123 7.96024 6.30123 7.44824 6.93323 7.08024C7.57323 6.71224 8.28123 6.52824 9.05723 6.52824C9.96923 6.52824 10.7652 6.74824 11.4452 7.18824C12.1252 7.62824 12.6212 8.25224 12.9332 9.06024H11.6252C11.3932 8.55624 11.0572 8.16824 10.6172 7.89624C10.1852 7.62424 9.66523 7.48824 9.05723 7.48824C8.47323 7.48824 7.94923 7.62424 7.48523 7.89624C7.02123 8.16824 6.65723 8.55624 6.39323 9.06024C6.12923 9.55624 5.99723 10.1402 5.99723 10.8122C5.99723 11.4762 6.12923 12.0602 6.39323 12.5642C6.65723 13.0602 7.02123 13.4442 7.48523 13.7162C7.94923 13.9882 8.47323 14.1242 9.05723 14.1242C9.66523 14.1242 10.1852 13.9922 10.6172 13.7282C11.0572 13.4562 11.3932 13.0682 11.6252 12.5642H12.9332C12.6212 13.3642 12.1252 13.9842 11.4452 14.4242C10.7652 14.8562 9.96923 15.0722 9.05723 15.0722C8.28123 15.0722 7.57323 14.8922 6.93323 14.5322C6.30123 14.1642 5.80123 13.6562 5.43323 13.0082C5.06523 12.3602 4.88123 11.6282 4.88123 10.8122Z" fill="#707A8A"/>
</svg>
