<svg width="21" height="20" viewBox="0 0 21 20" fill="none" xmlns="http://www.w3.org/2000/svg">
<path d="M16.9658 4.06643L12.0825 1.89143C11.3658 1.57476 10.2825 1.57476 9.56581 1.89143L4.68247 4.06643C3.44914 4.61643 3.26581 5.36643 3.26581 5.76643C3.26581 6.16643 3.44914 6.91643 4.68247 7.46643L9.56581 9.64143C9.92414 9.79976 10.3741 9.8831 10.8241 9.8831C11.2741 9.8831 11.7241 9.79976 12.0825 9.64143L16.9658 7.46643C18.1991 6.91643 18.3825 6.16643 18.3825 5.76643C18.3825 5.36643 18.2075 4.61643 16.9658 4.06643Z" fill="#687788"/>
<path d="M10.8242 14.1915C10.5075 14.1915 10.1908 14.1248 9.89917 13.9998L4.28251 11.4998C3.42417 11.1165 2.75751 10.0915 2.75751 9.14981C2.75751 8.80814 3.03251 8.53314 3.37417 8.53314C3.71584 8.53314 3.99084 8.80814 3.99084 9.14981C3.99084 9.59981 4.36584 10.1831 4.78251 10.3665L10.3992 12.8665C10.6658 12.9831 10.9742 12.9831 11.2408 12.8665L16.8575 10.3665C17.2742 10.1831 17.6492 9.60814 17.6492 9.14981C17.6492 8.80814 17.9242 8.53314 18.2658 8.53314C18.6075 8.53314 18.8825 8.80814 18.8825 9.14981C18.8825 10.0831 18.2158 11.1165 17.3575 11.4998L11.7408 13.9998C11.4575 14.1248 11.1408 14.1915 10.8242 14.1915Z" fill="#687788"/>
<path d="M10.8242 18.3248C10.5075 18.3248 10.1908 18.2582 9.89917 18.1332L4.28251 15.6332C3.35751 15.2248 2.75751 14.2998 2.75751 13.2832C2.75751 12.9415 3.03251 12.6665 3.37417 12.6665C3.71584 12.6665 3.99084 12.9415 3.99084 13.2832C3.99084 13.8082 4.29917 14.2832 4.78251 14.4998L10.3992 16.9998C10.6658 17.1165 10.9742 17.1165 11.2408 16.9998L16.8575 14.4998C17.3325 14.2915 17.6492 13.8082 17.6492 13.2832C17.6492 12.9415 17.9242 12.6665 18.2658 12.6665C18.6075 12.6665 18.8825 12.9415 18.8825 13.2832C18.8825 14.2998 18.2825 15.2165 17.3575 15.6332L11.7408 18.1332C11.4575 18.2582 11.1408 18.3248 10.8242 18.3248Z" fill="#687788"/>
</svg>
