<svg width="20" height="20" viewBox="0 0 20 20" fill="none" xmlns="http://www.w3.org/2000/svg">
<path d="M13.4915 1.66675H6.50817C3.47484 1.66675 1.6665 3.47508 1.6665 6.50841V13.4834C1.6665 16.5251 3.47484 18.3334 6.50817 18.3334H13.4832C16.5165 18.3334 18.3248 16.5251 18.3248 13.4917V6.50841C18.3332 3.47508 16.5248 1.66675 13.4915 1.66675ZM5.83317 11.0917C5.23317 11.0917 4.7415 10.6001 4.7415 10.0001C4.7415 9.40008 5.23317 8.90841 5.83317 8.90841C6.43317 8.90841 6.92484 9.40008 6.92484 10.0001C6.92484 10.6001 6.43317 11.0917 5.83317 11.0917ZM9.99984 11.0917C9.39984 11.0917 8.90817 10.6001 8.90817 10.0001C8.90817 9.40008 9.39984 8.90841 9.99984 8.90841C10.5998 8.90841 11.0915 9.40008 11.0915 10.0001C11.0915 10.6001 10.5998 11.0917 9.99984 11.0917ZM14.1665 11.0917C13.5665 11.0917 13.0748 10.6001 13.0748 10.0001C13.0748 9.40008 13.5665 8.90841 14.1665 8.90841C14.7665 8.90841 15.2582 9.40008 15.2582 10.0001C15.2582 10.6001 14.7665 11.0917 14.1665 11.0917Z" fill="#687788"/>
</svg>
