<svg width="14" height="10" viewBox="0 0 14 10" fill="none" xmlns="http://www.w3.org/2000/svg">
<path d="M13.8605 2.20005C13.8605 2.20005 13.7238 1.23481 13.3027 0.810986C12.7695 0.253174 12.1734 0.250439 11.9 0.217627C9.94219 0.0754394 7.00273 0.0754395 7.00273 0.0754395H6.99726C6.99726 0.0754395 4.05781 0.0754394 2.1 0.217627C1.82656 0.250439 1.23047 0.253174 0.697266 0.810986C0.276172 1.23481 0.142187 2.20005 0.142187 2.20005C0.142187 2.20005 0 3.33481 0 4.46685V5.52778C0 6.65981 0.139453 7.79458 0.139453 7.79458C0.139453 7.79458 0.276172 8.75981 0.694531 9.18364C1.22773 9.74145 1.92773 9.72231 2.23945 9.78247C3.36055 9.88911 7 9.92192 7 9.92192C7 9.92192 9.94219 9.91645 11.9 9.777C12.1734 9.74419 12.7695 9.74145 13.3027 9.18364C13.7238 8.75981 13.8605 7.79458 13.8605 7.79458C13.8605 7.79458 14 6.66255 14 5.52778V4.46685C14 3.33481 13.8605 2.20005 13.8605 2.20005ZM5.55352 6.81567V2.88091L9.33516 4.85513L5.55352 6.81567Z" fill="#1E2329"/>
</svg>
