<svg width="58" height="32" viewBox="0 0 58 32" fill="none" xmlns="http://www.w3.org/2000/svg">
<mask id="mask0_512_2966" style="mask-type:alpha" maskUnits="userSpaceOnUse" x="0" y="2" width="58" height="28">
<path d="M57.7068 16.7198C57.3427 24.1155 51.2311 30 43.7448 30C36.0245 30 29.7658 23.7412 29.7658 16.0207C29.7658 8.30022 36.0245 2.04163 43.7448 2.04163C50.9936 2.04163 56.9536 7.55884 57.6551 14.623H51.3066C50.6493 11.044 47.5138 8.33233 43.745 8.33233C39.4986 8.33233 36.0564 11.7746 36.0564 16.0207C36.0564 20.2671 39.4986 23.7094 43.745 23.7094C47.005 23.7094 49.7908 21.6805 50.9093 18.8167H40.2501V16.7198H57.7068Z" fill="#FFFBF6"/>
<path d="M4.6008 26.3461C10.0879 31.318 18.5704 31.1573 23.8639 25.8639C29.323 20.4046 29.323 11.5536 23.8639 6.09435C18.4046 0.635217 9.5536 0.635217 4.0944 6.09435C-1.03121 11.22 -1.34441 19.3355 3.15476 24.8267L7.6437 20.3378C5.57796 17.3423 5.87758 13.2076 8.54256 10.5426C11.5451 7.54004 16.4132 7.54004 19.4159 10.5426C22.4182 13.5452 22.4182 18.4133 19.4159 21.4159C17.1106 23.721 13.706 24.2565 10.8901 23.0221L18.4273 15.4848L16.9446 14.0023L4.6008 26.3461Z" fill="#FFFBF6"/>
</mask>
<g mask="url(#mask0_512_2966)">
<rect y="-1.5" width="57.75" height="34.125" fill="black"/>
</g>
</svg>
