<svg width="16" height="16" viewBox="0 0 16 16" fill="none" xmlns="http://www.w3.org/2000/svg">
<path d="M8.36196 10.62L13.672 5.04699C13.7606 4.954 13.8101 4.83046 13.8101 4.70198C13.8101 4.57351 13.7606 4.44997 13.672 4.35699L13.666 4.35099C13.623 4.30575 13.5713 4.26973 13.5139 4.24512C13.4566 4.2205 13.3949 4.20781 13.3325 4.20781C13.2701 4.20781 13.2083 4.2205 13.151 4.24512C13.0937 4.26973 13.0419 4.30575 12.999 4.35099L7.99896 9.59899L3.00096 4.35099C2.95799 4.30575 2.90626 4.26973 2.84893 4.24512C2.7916 4.2205 2.72986 4.20781 2.66746 4.20781C2.60507 4.20781 2.54333 4.2205 2.486 4.24512C2.42866 4.26973 2.37694 4.30575 2.33396 4.35099L2.32796 4.35699C2.23932 4.44997 2.18987 4.57351 2.18987 4.70198C2.18987 4.83046 2.23932 4.954 2.32796 5.04699L7.63796 10.62C7.68466 10.669 7.74082 10.708 7.80305 10.7347C7.86528 10.7613 7.93227 10.7751 7.99996 10.7751C8.06766 10.7751 8.13465 10.7613 8.19688 10.7347C8.2591 10.708 8.31527 10.669 8.36196 10.62Z" fill="white"/>
</svg>
