<svg width="18" height="18" viewBox="0 0 18 18" fill="none" xmlns="http://www.w3.org/2000/svg">
<path d="M17.055 12.245L15.095 8.935L17.035 5.76C17.0811 5.68434 17.1062 5.5978 17.1078 5.50924C17.1095 5.42068 17.0876 5.33327 17.0443 5.25596C17.0011 5.17865 16.9381 5.11421 16.8618 5.06923C16.7855 5.02426 16.6986 5.00037 16.61 5H1C0.734784 5 0.48043 5.10536 0.292893 5.29289C0.105357 5.48043 0 5.73478 0 6L0 12C0 12.2652 0.105357 12.5196 0.292893 12.7071C0.48043 12.8946 0.734784 13 1 13H16.625C16.7133 13 16.7999 12.9766 16.8762 12.9323C16.9525 12.8879 17.0157 12.8241 17.0594 12.7474C17.1031 12.6708 17.1257 12.5839 17.1249 12.4956C17.1241 12.4074 17.1 12.3209 17.055 12.245ZM5.255 10.59H4.695L3.065 8.42V10.595H2.5V7.5H3.065L4.7 9.675V7.5H5.26L5.255 10.59ZM8.42 8H6.655V8.745H8.255V9.245H6.655V10.05H8.42V10.55H6.09V7.5H8.415L8.42 8ZM12.565 10.58H12L11.225 8.285L10.45 10.59H9.89L8.89 7.5H9.5L10.16 9.715L10.92 7.5H11.53L12.26 9.715L12.925 7.5H13.54L12.565 10.58Z" fill="#E90092"/>
</svg>
