<svg width="30" height="30" viewBox="0 0 30 30" fill="none" xmlns="http://www.w3.org/2000/svg">
<path fill-rule="evenodd" clip-rule="evenodd" d="M15 29.1667C22.854 29.1667 29.1667 22.854 29.1667 15C29.1667 7.146 22.854 0.833336 15 0.833336C7.14604 0.833336 0.833374 7.146 0.833374 15C0.833374 22.854 7.14604 29.1667 15 29.1667ZM18.8959 17.2383C18.8959 15.1757 17.6563 14.4673 15.1771 14.1755C13.4063 13.9375 13.0521 13.4672 13.0521 12.6356C13.0521 11.8111 13.6471 11.2813 14.823 11.2813C15.8855 11.2813 16.4805 11.6354 16.7709 12.5194C16.8029 12.6044 16.8598 12.6778 16.934 12.7301C17.0083 12.7824 17.0966 12.8111 17.1874 12.8127H18.1266C18.181 12.8144 18.2352 12.8051 18.2858 12.7853C18.3365 12.7655 18.3827 12.7356 18.4215 12.6975C18.4603 12.6593 18.4909 12.6137 18.5116 12.5634C18.5323 12.5131 18.5425 12.4591 18.5417 12.4047V12.3423C18.3037 11.0418 17.2412 9.80225 15.8855 9.68609V8.38559C15.8855 8.14617 15.7084 7.96909 15.418 7.91525H14.6388C14.398 7.91525 14.177 8.09234 14.1146 8.38559V9.68609C12.3438 9.92692 11.168 11.2813 11.168 12.7603C11.168 14.7068 12.3438 15.4689 14.823 15.7693C16.4805 16.0611 17.0103 16.4167 17.0103 17.363C17.0103 18.3023 16.1787 18.9568 15.0624 18.9568C13.5225 18.9568 12.9912 18.3023 12.8141 17.4168C12.7603 17.1859 12.5832 17.0627 12.4061 17.0627H11.3975C11.3431 17.0619 11.2891 17.0721 11.2387 17.0928C11.1884 17.1135 11.1428 17.1441 11.1047 17.1829C11.0665 17.2217 11.0366 17.2679 11.0168 17.3185C10.997 17.3692 10.9877 17.4234 10.9895 17.4778V17.5401C11.2204 19.0106 12.1667 20.0193 14.116 20.3125V21.6215C14.116 21.8623 14.2931 22.021 14.5835 22.0819H15.4335C15.6645 22.0819 15.8245 21.9233 15.8869 21.6215V20.3111C17.6577 20.0193 18.8959 18.8335 18.8959 17.2398M9.03871 21.6513C9.89447 22.4364 10.8975 23.0441 11.9896 23.4391C12.1667 23.5623 12.3438 23.7933 12.3438 23.9703V24.8019C12.3438 24.9167 12.3438 24.979 12.2829 25.0328C12.229 25.2708 11.9896 25.387 11.7516 25.2708C9.60338 24.5868 7.72838 23.2372 6.39783 21.4172C5.06727 19.5972 4.35014 17.4011 4.35014 15.1466C4.35014 12.8921 5.06727 10.696 6.39783 8.87603C7.72838 7.05602 9.60338 5.70641 11.7516 5.02242C11.8125 4.96859 11.9287 4.96859 11.9896 4.96859C12.2305 5.02242 12.3438 5.1995 12.3438 5.4375V6.262C12.3438 6.56234 12.2305 6.73942 11.9896 6.85417C10.7826 7.2904 9.68651 7.98708 8.77913 8.89471C7.87175 9.80233 7.17537 10.8986 6.73946 12.1058C6.13053 13.7452 6.02403 15.5289 6.43357 17.2291C6.84311 18.9293 7.75009 20.4689 9.03871 21.6513ZM17.7186 5.26042C17.7725 5.02242 18.0105 4.90625 18.2499 5.02242C19.8728 5.54957 21.3463 6.45688 22.5476 7.66878C23.7489 8.88068 24.6433 10.3621 25.1561 11.9896C26.927 17.5953 23.8542 23.5623 18.2499 25.3332C18.1875 25.387 18.0728 25.387 18.0105 25.387C17.7725 25.3332 17.6563 25.1561 17.6563 24.9167V24.095C17.6563 23.7933 17.7725 23.6162 18.0105 23.5C20.4287 22.6146 22.3766 20.729 23.262 18.2498C23.6669 17.1613 23.8521 16.0033 23.807 14.8428C23.7618 13.6823 23.4871 12.5422 22.9988 11.4884C22.5105 10.4346 21.8183 9.48805 20.9621 8.70333C20.1059 7.91861 19.1027 7.31131 18.0105 6.9165C17.8334 6.79325 17.6563 6.56234 17.6563 6.32292V5.50125C17.6563 5.37659 17.6563 5.32275 17.7186 5.26042Z" fill="#2775CA"/>
</svg>
